<svg width="23" height="23" viewBox="0 0 23 23" fill="none" xmlns="http://www.w3.org/2000/svg">
<path d="M3.39039 0.442667C2.55689 0.582855 1.803 0.975386 1.19426 1.58287C0.744732 2.03615 0.552747 2.31653 0.30457 2.90065C-0.0185282 3.64366 0.000202183 3.16701 0.000202183 11.6251C0.000202183 19.901 -0.00916297 19.5739 0.257744 20.2748C0.440365 20.7655 0.72132 21.2047 1.11934 21.6206C1.68593 22.2141 2.29467 22.5692 3.10007 22.7842L3.48872 22.887L10.9574 22.9057C16.2722 22.915 18.562 22.9057 18.8897 22.8683C19.8637 22.7562 20.6504 22.387 21.3247 21.7187C21.8257 21.2234 22.1207 20.7421 22.3642 20.0178L22.5 19.6206V11.6765V3.73244L22.3923 3.36328C21.999 2.00344 20.9782 0.980059 19.5968 0.545471L19.1754 0.414629L11.4023 0.409956C7.12709 0.405283 3.5215 0.419302 3.39039 0.442667ZM8.37734 8.86805C9.95537 10.3821 11.2337 11.6391 11.229 11.6578C11.2197 11.6765 9.92259 12.9335 8.34456 14.4523L5.46946 17.214L4.72493 16.499C4.31754 16.1112 3.9804 15.7654 3.98508 15.742C3.98508 15.714 4.93564 14.7887 6.09224 13.6859C7.24415 12.5784 8.19004 11.6625 8.19472 11.6485C8.19472 11.6298 7.24884 10.7045 6.08756 9.59236C4.93096 8.48019 3.9804 7.55962 3.9804 7.5456C3.9804 7.48485 5.41327 6.0923 5.46009 6.10165C5.49287 6.11099 6.80399 7.354 8.37734 8.86805ZM18.59 16.3495V17.214H15.8742H13.1583V16.3495V15.485H15.8742H18.59V16.3495Z" fill="#C92071"/>
</svg>
